<?xml version="1.0" encoding="UTF-8"?><svg xmlns="http://www.w3.org/2000/svg" viewBox="0 0 1515.96 1534.6"><defs><style>.d{fill:#fff;}</style></defs><g id="a"/><g id="b"><g id="c"><path class="d" d="M579.63,452.54c-.28-2.91-.29-4.25-.56-5.53-2.39-11.78-4.3-23.69-7.52-35.23-1.17-4.21-5.01-8.1-8.48-11.18-15.96-14.14-34.57-23.28-55.32-28.11-10.69-2.49-21.24-6.39-32.06-7.34-13.38-1.17-27.04-.75-40.45,.47-13.12,1.2-26.09,4.2-39.1,6.56-19.79,3.59-38.68,10.06-55.83,20.52-26.97,16.46-50.34,37.7-73.9,58.5-18.7,16.51-31.24,38.01-43.64,59.35-10.82,18.62-22.08,37.07-31.58,56.36-8.72,17.71-15.09,36.6-17.72,56.33-1.77,13.28-2.91,26.74-2.93,40.12-.02,9.59,2.35,19.18,3.54,28.78,.7,5.71,.51,11.61,1.88,17.14,3.38,13.66,11.74,24.37,20.4,35.31,8.51,10.74,19.83,13.81,31.66,17.09,2.69,.74,5.34,1.88,8.07,2.18,3.88,.43,7.83,.28,11.75,.34,2.79,.04,5.59,0,8.38,0,.35,.63,.7,1.26,1.05,1.89-2.05,1.78-4.09,5.05-6.17,5.08-7,.11-13.92,1.97-21.1-2.15-5.75-3.3-13.72-2.54-19.88-5.37-8.51-3.9-16.6-9-24.21-14.5-6.17-4.46-10.74-11.42-17.25-15.03-4.17-2.31-11.15-2.06-15.92-.34-14.91,5.37-28.54,13.06-39.66,24.93-16.51,17.63-29.34,37.82-40.72,58.83-4.66,8.6-6.99,18.74-8.88,28.48-2.59,13.32-3.53,26.95-5.56,40.38-3.97,26.17-.89,52.07,1.95,78.08,2.36,21.62,3.95,43.21,9.15,64.5,5.86,24.01,14.32,46.87,25.02,69.04,4.98,10.32,8.69,21.34,14.43,31.19,5.01,8.6,12.25,15.88,18.15,23.99,6.38,8.78,12.24,17.93,18.54,26.76,3.21,4.49,6.76,8.76,10.41,12.9,8.61,9.79,16.46,20.5,26.24,28.96,22.08,19.11,43.64,38.76,68.08,55.25,19.6,13.22,40.1,23.96,61.49,33.5,9.53,4.25,18.68,9.51,28.5,12.88,11.57,3.97,23.68,6.38,35.56,9.46,11.29,2.93,22.45,6.58,33.91,8.55,11.93,2.05,24.19,3.78,36.22,3.32,19.06-.72,38.08-3.06,57.04-5.36,9.7-1.17,19.22-3.78,28.83-5.67,11.02-2.17,19.01-9.38,26.56-16.78,5.89-5.76,10.61-12.71,16.34-19.02-1.89,6.45-1.31,13.32-6.86,19.13-8.63,9.05-17.46,17.73-28.27,24.04-8.47,4.94-17.03,9.95-26.08,13.64-10.53,4.3-21.81,6.71-32.44,10.8-22.51,8.66-46.39,8.53-69.73,12.08-21.51,3.28-42.38-.49-63.59-1.74-21.06-1.24-41.16-6.18-60.99-12.02-17.75-5.23-34.89-12.76-51.96-20.05-12.39-5.29-24.32-11.71-36.31-17.9-16.81-8.68-31.84-20.09-46.62-31.76-4.07-3.21-6.15-9.53-10.5-11.66-10.18-4.98-16.24-13.32-23.07-21.69-8.21-10.07-18.65-18.3-27.26-28.08-8.23-9.35-15.62-19.48-22.86-29.64-5.82-8.18-11.33-16.66-16.11-25.47-5.8-10.67-10.71-21.83-15.96-32.79-3.67-7.67-7.97-15.14-10.76-23.13-5.21-14.94-9.18-30.31-14.3-45.29-8.2-23.98-8.61-49.04-10.28-73.82-1.03-15.23,.22-30.67,1.2-45.97,.83-12.93,2.38-25.84,4.27-38.67,2.7-18.31,4.87-36.77,12.72-53.92,7.99-17.47,14.1-35.89,25.59-51.59,6.79-9.28,13.37-18.83,21.17-27.22,11.68-12.56,23.43-25.39,36.84-35.94,16.69-13.12,35.17-23.88,57.82-23.1,.56,.02,1.14-.36,1.74-.56-4.21-7.77-9.45-15.08-12.3-23.24-4.64-13.3-8.13-27.04-11.3-40.79-2.17-9.38-3.82-19.05-4.17-28.64-.47-12.75,.46-25.56,.94-38.34,.34-9.08-.39-18.46,1.69-27.15,4.34-18.19,10.57-35.93,15.39-54.02,5.86-21.98,19.6-40.05,29.43-60.03,5.26-10.69,13.63-20.14,21.83-29.01,13.18-14.26,27.38-27.58,40.9-41.05-3.43-5.93-8.27-12.59-11.35-19.99-5.59-13.42-8.81-27.55-7.98-42.25,.73-12.96,.85-26.07,3.09-38.79,2.85-16.26,4.74-32.89,12.82-47.94,4.72-8.8,7.51-18.65,12.24-27.45,6.1-11.34,12.99-22.28,20.08-33.05,5.96-9.06,12.54-17.72,19.09-26.37,14.55-19.22,32.08-35.26,52.42-48.16,15.74-9.98,31.37-20.21,47.6-29.36,17.99-10.15,36.24-19.96,55.03-28.49,17.55-7.97,35.68-14.95,54.06-20.75,19.24-6.07,38.86-11.48,58.72-14.84,20.04-3.39,40.53-4.65,60.87-5.48,19.71-.8,39.53-.45,59.24,.52,12.92,.64,25.75,3.22,38.6,5.05,18.63,2.66,35.78,10,53,17.07,14.25,5.85,28.51,11.67,42.66,17.73,3.69,1.58,7.01,4.03,10.51,6.05,12.03,6.96,23.85,14.32,36.15,20.76,17.14,8.98,31.75,21.08,45.15,34.79,17.3,17.7,30.18,38.32,39.95,61,4.79,11.12,7.66,22.57,7.3,34.71-.08,2.83-.67,5.64-1.09,9.05,99.59,1.24,176.6,43.07,229.03,128.97,2.92-3.43,6.01-2.92,10.64-2.24,21.46,3.15,41.21,11.67,61.17,19,16.46,6.05,31.84,15.18,47.36,23.59,8.68,4.7,17.02,10.21,24.85,16.22,9.91,7.6,19.28,15.94,28.66,24.22,14.32,12.64,29.17,24.79,42.46,38.45,12.21,12.54,22.6,26.84,33.89,40.29,6.15,7.32,13.09,14.06,18.59,21.83,6.2,8.76,11.24,18.36,16.67,27.66,2.45,4.19,4.39,8.7,7,12.78,8.62,13.47,12.91,28.56,16.91,43.79,1.62,6.15,3.74,12.18,5.28,18.35,2.35,9.37,4.57,18.79,6.55,28.25,3.16,15.13,6.77,30.21,8.88,45.5,2.16,15.7,2.73,31.62,4.04,47.44,.52,6.3,1.71,12.59,1.67,18.88-.07,9.47-.49,18.98-1.59,28.37-1.91,16.31-3.65,32.72-6.95,48.77-3.83,18.61-9.28,36.89-13.99,55.32-2.92,11.43-6.48,22.76-8.48,34.35-2.49,14.43-9.89,26.64-16.24,39.27-6.69,13.31-14.35,26.2-22.39,38.76-5.59,8.74-12.4,16.72-18.91,24.85-3.91,4.88-8.22,9.44-12.46,14.04-11.78,12.79-23.02,26.15-35.64,38.05-8.16,7.7-18.41,13.17-27.65,19.75-4.99,3.56-9.48,7.97-14.78,10.93-10.51,5.88-21.25,11.45-32.24,16.36-13.72,6.14-27.79,11.49-40.75,16.79,6.25,4.29,13.62,9.24,20.88,14.35,8.45,5.95,14.22,13.89,17.98,23.55,3.94,10.13,8.84,19.91,12.46,30.14,1.09,3.07-.71,7.17-1.19,10.8-.67,.02-1.33,.04-2,.07-2.26-4.16-4.71-8.22-6.76-12.49-5.39-11.25-15.75-15.77-26.55-19.24-18.27-5.87-37.1-4.24-55.6-1.83-14.33,1.87-27.59,7.78-38.08,18.21-20.24,20.13-44.7,33.16-71.04,43.12-18.45,6.98-37.43,12.01-57.24,12.05-15.02,.03-30.08-.84-45.04-2.23-10.6-.98-21.21-1.41-31.06,2.24-5.99,2.23-11.06,7.31-16.01,11.71-1.27,1.13-1.46,5.01-.54,6.79,6.14,11.95,12.06,24.1,19.33,35.36,7.18,11.13,15.37,21.71,24.01,31.76,9.59,11.15,20.17,21.44,30.38,32.06,15.09,15.7,34.67,25.22,52.09,37.72,10.66,7.65,21.4,15.28,32.68,21.97,12.84,7.61,26.03,14.77,39.58,21,14.99,6.89,30.23,13.71,46.01,18.31,11.91,3.47,24.84,3.44,37.33,4.86,3.88,.44,7.8,.62,11.7,.78,7.59,.31,9.85,3.19,12.38,10.8,3.56,10.73,.92,20.48-3.63,29.73-1.61,3.27-6.36,6.47-10.03,6.93-6.37,.8-13.04-.23-19.52-1.08-9.23-1.21-18.5-2.51-27.56-4.58-11.51-2.63-22.96-5.65-34.19-9.27-10.88-3.5-21.55-7.74-32.13-12.1-8.16-3.36-16.36-6.87-23.98-11.28-16.91-9.79-33.57-20.04-50.15-30.39-10.71-6.69-21.39-13.48-31.54-20.96-13.32-9.81-26.66-19.72-39.01-30.7-14.4-12.79-28.05-26.49-38.02-43.32-10.56-17.82-21.39-35.47-31.91-53.31-2.76-4.68-4.53-9.94-7.31-14.61-1.16-1.94-3.55-3.66-5.75-4.38-10.68-3.5-21.36-2.93-30.58,3.6-6.74,4.77-12.42,11.06-18.49,16.76-14.89,14-28.74,29.34-44.9,41.66-12.44,9.48-27.24,15.67-42.96,20.07-18.84,5.28-37.55,5.83-56.59,5.01-24.78-1.08-48.99-5.65-69.69-19.9-12.72-8.76-24.93-19.13-34.71-30.97-6.67-8.08-9.55-19.71-12.65-30.19-2.49-8.43-3.38-17.48-3.8-26.31-.25-5.31,1.75-10.72,4.06-16.35,1.32,3.7,3.52,7.34,3.8,11.13,.96,13.2,8.24,23.06,16.45,32.33,4.68,5.28,9.79,10.66,15.77,14.18,12.1,7.1,25.82,9.72,39.73,9.05,10.91-.52,21.85-3.06,30.73-9.77,7.27-5.49,14.26-11.79,19.89-18.9,11.46-14.47,22.47-29.37,32.64-44.76,13.16-19.93,31.71-33.52,52.44-43.45,13.15-6.3,27.85-12.06,43.52-6.68,1.66,.57,3.67,.08,6.17,.08,0-1.49,.21-3.07-.03-4.57-3.04-18.71-1.42-37.11,2.67-55.54,2.61-11.74,6.54-22.37,12.7-32.97,7.09-12.22,16.21-22.21,26.18-31.46,8.99-8.34,19.99-14.46,29.42-22.37,13.27-11.14,28.71-18.52,43.56-26.98,17.76-10.11,35.71-19.98,52.79-31.15,15.66-10.25,29.64-22.68,39.68-38.98,8.24-13.39,17.57-26.15,25.13-39.91,6.82-12.42,10.27-26.08,8.43-40.63-.52-4.14,.39-8.49-.29-12.58-.82-4.96-2.67-9.75-4.02-14.63-.4-1.44-.62-2.92-.95-4.53,8.15-1.19,8.49,5.17,10.66,9.36,5.65,10.94,7.09,23.35,11.93,34.59,.41,.95,1.2,1.85,1.28,2.82,1.04,12.97,3.67,26.1,2.54,38.89-1.52,17.14-5.04,34.26-9.4,50.95-5.81,22.23-13.87,43.88-26.57,63.21-7.55,11.5-15.64,23.1-25.56,32.46-10.19,9.62-22.41,17.44-34.63,24.51-18.81,10.87-34.05,25.22-46.44,42.77-3.46,4.89-5.75,10.61-8.84,16.43,8.66-3.67,16.5-7.54,24.69-10.34,13.39-4.58,27.22-6.22,41.37-4.1,12.63,1.89,25.3,3.53,37.92,5.48,11.95,1.85,23.88,3.86,35.78,5.98,13.15,2.34,25.64,.23,37.9-4.71,15.68-6.3,31.14-13.44,47.3-18.14,13.79-4.01,28.23-4.09,42.47,1.06,3.94,1.43,10-.26,14.07-2.43,14.24-7.56,28.46-15.33,41.87-24.24,9.24-6.14,17.21-14.21,25.61-21.57,7.85-6.88,15.63-13.85,23.25-20.98,11.58-10.84,20.43-23.59,27.02-38.08,7.33-16.1,16.15-31.56,22.79-47.92,9.39-23.11,18.07-46.56,25.68-70.31,4.29-13.38,5.66-27.69,8.65-41.51,1.3-6.03,3.99-11.8,4.96-17.86,2.96-18.49,6-37,7.83-55.61,1.52-15.42,2.78-31.12,1.6-46.5-1.48-19.31-5.02-38.53-8.67-57.59-3.77-19.68-7.91-39.38-13.44-58.62-5.86-20.39-12.7-40.6-20.7-60.25-8.34-20.48-17.79-40.6-28.22-60.1-8.79-16.44-19.5-31.88-29.7-47.53-9.45-14.49-18.65-29.25-29.31-42.83-8.18-10.42-17.65-20.22-28.01-28.45-14.71-11.68-30.5-22.07-46.33-32.24-11.37-7.31-23.26-13.97-35.49-19.7-6.29-2.95-13.82-3.23-22.11-5,2.98,7.88,4.76,14.88,8.11,21.03,8.9,16.31,13.92,33.95,18.42,51.73,4.83,19.09,9.18,38.32,13.05,57.63,3.86,19.25,2.98,38.74-.88,57.82-5.14,25.43-12,50.38-26.06,72.77-6.8,10.82-14.26,21.05-24.63,28.48-4.81,3.45-11.11,4.86-16.78,7.06-1.99,.77-4.17,1.68-6.21,1.55-1.9-.12-3.71-1.55-5.56-2.4,.78-1.44,1.21-3.67,2.4-4.2,12.8-5.71,23.97-13.86,29.79-26.59,5.09-11.12,9.11-23.21,10.85-35.28,2.37-16.47,2.98-33.33,2.75-50-.21-15.36-.9-30.77-6.64-45.65-5.8-15.05-9.59-30.86-14.98-46.08-8.55-24.17-20.69-46.64-36.29-66.9-7.7-10-17.47-18.47-26.65-27.27-12.44-11.94-24.93-23.86-37.9-35.21-13.63-11.93-29.98-19.53-46.58-26.23-17.37-7.01-34.95-13.62-52.76-19.38-20.29-6.56-40.87-12.1-62.71-9.16-11.22,1.51-22.57,2.01-33.83,3.24-3.21,.35-6.41,1.42-9.45,2.6-12.36,4.78-25.52,8.32-36.73,15.06-9.73,5.85-18.16,14.74-19.5,27.64-6.66-1.12-4.9-6.04-4.13-8.84,2.62-9.57,7.66-17.78,14.67-25.11,18.62-19.44,41.54-31.86,66.51-40.24,20.65-6.93,41.77-13.1,65.81-10.65-2.1-6.63-3.53-12.29-5.68-17.66-2.69-6.75-5.96-13.28-9-19.9-.34-.75-.7-1.56-1.26-2.14-12.93-13.4-24.61-28.4-39.16-39.74-18.76-14.62-38.92-27.76-61.83-35.81-11.96-4.2-23.29-10.3-35.39-13.93-15.48-4.65-31.33-8.23-47.22-11.26-15.71-2.99-31.61-5.3-47.53-6.8-11.63-1.09-23.44-.45-35.17-.46-11.04-.02-22.13-.54-33.11,.35-11.89,.96-23.67,3.25-35.49,5.03-14.23,2.15-28.72,3.28-42.59,6.85-18.53,4.77-36.63,11.29-54.81,17.37-14.98,5.01-30.03,9.9-44.62,15.9-13.83,5.68-27.36,12.25-40.56,19.3-16.4,8.76-32.49,18.14-48.37,27.81-7.68,4.68-14.63,10.59-21.82,16.06-17.39,13.21-31.25,30.02-46.66,45.26-13.14,13-23.28,27.54-31.52,43.57-5.05,9.82-8.24,20.59-12.3,30.92-3.17,8.06-6.79,15.98-9.5,24.19-4.14,12.56-5.64,25.5-3.48,38.69,.2,1.22,.59,2.48,.47,3.68-.91,9.51,1.25,17.88,8.01,23.37,18.87-8.87,37.4-17.83,56.16-26.29,11.63-5.25,23.24-11.26,35.51-14.19,18.57-4.45,37.61-7.43,56.61-9.38,29.28-3.01,57.73,2.36,86.04,10,18.07,4.87,35.28,11.57,51.71,19.99,8.88,4.55,16.68,11.79,23.85,18.93,9.31,9.28,16.82,20.21,20.13,33.19,3.37,13.22,7.33,26.66-.68,41.75Z"/></g></g></svg>